<?xml version="1.0" encoding="utf-8"?>
<!-- Generator: Adobe Illustrator 16.0.4, SVG Export Plug-In . SVG Version: 6.00 Build 0)  -->
<!DOCTYPE svg PUBLIC "-//W3C//DTD SVG 1.1//EN" "http://www.w3.org/Graphics/SVG/1.1/DTD/svg11.dtd">
<svg version="1.1" id="Capa_1" xmlns="http://www.w3.org/2000/svg" xmlns:xlink="http://www.w3.org/1999/xlink" x="0px" y="0px"
	 width="100px" height="100px" viewBox="0 0 100 100" enable-background="new 0 0 100 100" xml:space="preserve">
<path fill="#010101" d="M81.915,32.631l-29.842-14.13c-0.017-0.007-0.033-0.01-0.05-0.018c-0.09-0.04-0.188-0.069-0.281-0.1
	c-0.077-0.025-0.152-0.054-0.229-0.071c-0.078-0.018-0.158-0.023-0.238-0.034c-0.102-0.014-0.199-0.028-0.299-0.029
	c-0.02-0.001-0.033-0.006-0.053-0.006c-0.06,0-0.115,0.014-0.176,0.018c-0.102,0.007-0.199,0.013-0.296,0.03
	c-0.086,0.016-0.167,0.039-0.25,0.062s-0.166,0.046-0.247,0.076c-0.083,0.033-0.162,0.073-0.24,0.113
	c-0.076,0.038-0.151,0.076-0.223,0.121c-0.072,0.046-0.138,0.098-0.206,0.149c-0.07,0.056-0.14,0.108-0.205,0.17
	c-0.062,0.06-0.117,0.124-0.174,0.189c-0.056,0.064-0.114,0.128-0.164,0.198c-0.057,0.082-0.104,0.167-0.153,0.254
	c-0.029,0.053-0.066,0.098-0.092,0.153c-0.007,0.016-0.01,0.032-0.018,0.048c-0.041,0.092-0.069,0.187-0.1,0.282
	c-0.025,0.077-0.054,0.152-0.071,0.229c-0.018,0.078-0.023,0.159-0.034,0.238c-0.014,0.101-0.028,0.198-0.03,0.299
	c0,0.017-0.005,0.033-0.005,0.051v8.247l-5.774,3.038c-0.002,0.001-0.005,0.003-0.007,0.004L21.903,43.035
	c-0.015,0.007-0.029,0.019-0.043,0.026c-0.015,0.008-0.031,0.013-0.045,0.022c-0.039,0.021-0.073,0.049-0.11,0.073
	c-0.05,0.032-0.1,0.062-0.147,0.098c-0.049,0.037-0.094,0.076-0.141,0.116c-0.043,0.037-0.088,0.073-0.128,0.112
	c-0.044,0.043-0.085,0.089-0.126,0.135c-0.038,0.042-0.076,0.082-0.11,0.127c-0.038,0.047-0.072,0.098-0.106,0.148
	c-0.031,0.046-0.063,0.092-0.093,0.139c-0.031,0.053-0.058,0.107-0.085,0.161c-0.025,0.05-0.052,0.101-0.075,0.151
	c-0.024,0.056-0.042,0.113-0.063,0.17c-0.019,0.055-0.039,0.106-0.055,0.161c-0.017,0.06-0.028,0.12-0.042,0.181
	c-0.011,0.056-0.024,0.109-0.033,0.166c-0.009,0.062-0.013,0.127-0.017,0.191c-0.003,0.047-0.011,0.092-0.012,0.14
	c0,0.009,0.001,0.019,0.001,0.026c0,0.011-0.002,0.02-0.002,0.03v0.974V56.98v6.334c0,1.48,1.202,2.685,2.684,2.685
	c1.482,0,2.684-1.202,2.684-2.685v-1.517l23.135,14.336v4.478c0,1.479,1.201,2.684,2.683,2.684c1.481,0,2.684-1.202,2.684-2.684
	v-4.463l23.744-14.506v1.062c0,1.481,1.202,2.685,2.685,2.685c1.481,0,2.685-1.201,2.685-2.685v-5.849V45.41V35.055
	C83.449,34.02,82.852,33.075,81.915,32.631z M50.968,33.803l7.441,3.644l-1.703,1.21l-7.336-4.014L50.968,33.803z M48.972,69.824
	L25.836,55.486v-5.413L48.972,63.52V69.824z M51.669,58.88L28.693,45.526l14.977-7.883l23.105,12.64L51.669,58.88z M61.941,41.52
	l1.953-1.387l11.133,5.454l-2.771,1.576L61.941,41.52z M78.083,55.354L54.338,69.859v-6.323l19.287-10.976
	c0.004-0.004,0.009-0.006,0.014-0.01l4.444-2.529V55.354z M78.083,41.108L53.607,29.12v-3.953l24.476,11.589V41.108z"/>
</svg>
